# xmcd
#
# Track frame offsets: 
#        150
#        11468
#        24950
#        37586
#        47967
#        60966
#        71159
#        85256
#        97311
#        111267
#        126307
#        138092
#        152200
#        167128
#
# Disc length: 2485 seconds
#
# Revision: 0
# Processed by: cddbd v1.5.2PL0 Copyright (c) Steve Scherf et al.
# Submitted via: ExactAudioCopyFreeDBPlugin 1.0
#
DISCID=b409b30e
DTITLE=Charles Trenet - Chanson Celebration Collection La Mer CD 09 La
DTITLE=java du diable
DYEAR=1900
DGENRE=Chanson
TTITLE0=Ou sont-ils donc?
TTITLE1=La java du diable
TTITLE2=Paie tes dettes
TTITLE3=Ma philosophie
TTITLE4=L'âne et le gendarme
TTITLE5=J'ai mordu dans le fruit
TTITLE6=Du soir au lendemain
TTITLE7=Rien qu'une chanson
TTITLE8=Source bleue
TTITLE9=Coin de rue
TTITLE10=Où sont-ils donc?
TTITLE11=Liberté de Paris
TTITLE12=Rien qu'une chanson
TTITLE13=La mer
EXTD=
EXTT0=
EXTT1=
EXTT2=
EXTT3=
EXTT4=
EXTT5=
EXTT6=
EXTT7=
EXTT8=
EXTT9=
EXTT10=
EXTT11=
EXTT12=
EXTT13=
PLAYORDER=
